{
	"asset":{
		"generator":"Created using the official Cinema 4D glTF Exporter 1.000x284978",
		"version":"2.0"
	},
	"scenes":[{
		"nodes":[0]
	}],
	"nodes":[{
		"name":"Extrude",
		"translation":[-1436.9730224609376,
		561.945556640625,
		-3181.94189453125],
		"rotation":[0.0,
		0.0,
		0.0,
		-1.0],
		"scale":[1.0,
		1.0,
		1.0],
		"mesh":0
	}],
	"bufferViews":[{
		"buffer":0,
		"byteOffset":0,
		"byteLength":116802,
		"target":34963
	},
	{
		"buffer":0,
		"byteOffset":116804,
		"byteLength":949248,
		"byteStride":32,
		"target":34962
	}],
	"meshes":[{
		"name":"Extrude",
		"primitives":[{
			"attributes":{
				"POSITION":1,
				"NORMAL":2,
				"TEXCOORD_0":3
			},
			"indices":0,
			"material":0
		}]
	}],
	"accessors":[{
		"bufferView":0,
		"min":[0],
		"type":"SCALAR",
		"componentType":5123,
		"count":58401,
		"byteOffset":0,
		"max":[29663]
	},
	{
		"bufferView":1,
		"min":[-3861.28515625,
		-914.6158447265625,
		-2277.604736328125],
		"type":"VEC3",
		"componentType":5126,
		"count":29664,
		"byteOffset":0,
		"max":[3378.973388671875,
		1532.40185546875,
		4735.72705078125]
	},
	{
		"bufferView":1,
		"min":[-0.9999414682388306,
		-0.9999905824661255,
		-0.999797523021698],
		"type":"VEC3",
		"componentType":5126,
		"count":29664,
		"byteOffset":12,
		"max":[0.999891459941864,
		0.9999923706054688,
		0.999797523021698]
	},
	{
		"bufferView":1,
		"min":[0.0006192292785272002,
		0.0006235872860997915],
		"type":"VEC2",
		"componentType":5126,
		"count":29664,
		"byteOffset":24,
		"max":[0.9981516003608704,
		0.9981515407562256]
	}],
	"buffers":[{
		"uri":"data:application/octet-stream;base64,",
		"byteLength":1066052
	}],
	"images":[{
		"uri":"data:image/jpeg;base64,"
	}],
	"samplers":[{
		"magFilter":9729,
		"minFilter":9729,
		"wrapS":10497,
		"wrapT":10497
	}],
	"textures":[{
		"sampler":0,
		"source":0
	}],
	"materials":[{
		"pbrMetallicRoughness":{
			"baseColorTexture":{
				"index":0
			},
			"baseColorFactor":[0.8,
			0.8,
			0.8,
			1.0],
			"metallicFactor":0.0,
			"roughnessFactor":0.5
		},
		"emissiveFactor":[0.0,
		0.0,
		0.0],
		"name":"Extrude",
		"alphaMode":"OPAQUE",
		"doubleSided":false
	}]
}